<?xml version="1.0" encoding="UTF-8"?>
<svg id="_レイヤー_1" data-name="レイヤー_1" xmlns="http://www.w3.org/2000/svg" xmlns:xlink="http://www.w3.org/1999/xlink" version="1.1" viewBox="0 0 1200 630">
  <!-- Generator: Adobe Illustrator 29.6.1, SVG Export Plug-In . SVG Version: 2.1.1 Build 9)  -->
  <defs>
    <style>
      .st0 {
        isolation: isolate;
      }

      .st1 {
        fill: #00beff;
      }

      .st2 {
        fill: #ff5000;
      }

      .st3 {
        fill: url(#_名称未設定グラデーション_14);
      }

      .st4 {
        fill: url(#_名称未設定グラデーション_24);
      }
    </style>
    <linearGradient id="_名称未設定グラデーション_14" data-name="名称未設定グラデーション 14" x1="460.98" y1="206.99" x2="783.85" y2="206.99" gradientTransform="translate(-31.26 514.6) rotate(-45)" gradientUnits="userSpaceOnUse">
      <stop offset="0" stop-color="#fff"/>
      <stop offset="0" stop-color="#f8f7f7"/>
      <stop offset="1" stop-color="#00c7ff"/>
    </linearGradient>
    <linearGradient id="_名称未設定グラデーション_24" data-name="名称未設定グラデーション 24" x1="427.24" y1="401.68" x2="750.11" y2="401.68" gradientTransform="translate(1345.08 178.2) rotate(135)" gradientUnits="userSpaceOnUse">
      <stop offset="0" stop-color="#fff"/>
      <stop offset="0" stop-color="#f8f7f7"/>
      <stop offset="1" stop-color="#ff5000"/>
    </linearGradient>
  </defs>
  <g class="st0">
    <path d="M510.07,508.34l-1.99-8.53h-10.57l-2.05,8.53h-6.82l10-40.24h8.7l9.83,40.24h-7.1ZM502.97,474.53h-.23l-4.38,19.95h8.87l-4.26-19.95Z"/>
    <path d="M529.07,473.9v34.44h-6.71v-34.44h-7.56v-5.8h21.83v5.8h-7.56Z"/>
    <path d="M556.46,475.89c-1.48-1.78-3.33-2.67-5.57-2.67-.65,0-1.27.11-1.88.31-.61.21-1.16.54-1.65.99-.49.46-.88,1.04-1.17,1.76-.28.72-.43,1.57-.43,2.56,0,1.71.51,3.02,1.53,3.95,1.02.93,2.37,1.81,4.04,2.64.98.49,1.99,1.06,3.01,1.71,1.02.65,1.95,1.42,2.79,2.33.83.91,1.52,1.99,2.05,3.24.53,1.25.8,2.73.8,4.43,0,1.97-.31,3.71-.94,5.23-.62,1.52-1.46,2.79-2.5,3.84-1.04,1.04-2.26,1.83-3.67,2.36-1.4.53-2.88.8-4.43.8-2.24,0-4.3-.44-6.2-1.31-1.9-.87-3.41-1.97-4.55-3.3l3.69-5c.87,1.06,1.92,1.89,3.15,2.5,1.23.61,2.49.91,3.78.91,1.44,0,2.63-.49,3.58-1.48.95-.99,1.42-2.37,1.42-4.15s-.57-3.13-1.71-4.15c-1.14-1.02-2.58-1.97-4.32-2.84-1.1-.53-2.13-1.12-3.1-1.76-.97-.64-1.82-1.41-2.56-2.3-.74-.89-1.33-1.93-1.76-3.13-.44-1.19-.65-2.62-.65-4.29,0-2.08.33-3.87.99-5.37.66-1.5,1.53-2.74,2.61-3.72,1.08-.98,2.3-1.71,3.67-2.19,1.36-.47,2.75-.71,4.15-.71,2.05,0,3.87.33,5.48.99,1.61.66,2.96,1.64,4.06,2.93l-3.75,4.89Z"/>
    <path d="M588.98,500.05c-.46,1.86-1.19,3.48-2.22,4.86-1.02,1.38-2.34,2.47-3.95,3.27-1.61.8-3.57,1.19-5.88,1.19s-4.26-.4-5.85-1.19c-1.59-.79-2.89-1.88-3.89-3.27-1-1.38-1.72-3-2.16-4.86-.44-1.86-.65-3.85-.65-5.97v-25.97h6.82v25.35c0,1.25.09,2.45.26,3.61.17,1.16.47,2.17.91,3.04.44.87,1.03,1.56,1.79,2.07.76.51,1.72.77,2.9.77s2.14-.26,2.9-.77c.76-.51,1.35-1.2,1.79-2.07.44-.87.74-1.88.91-3.04.17-1.16.26-2.36.26-3.61v-25.35h6.76v25.97c0,2.12-.23,4.11-.68,5.97Z"/>
    <path d="M611.68,475.89c-1.48-1.78-3.33-2.67-5.57-2.67-.64,0-1.27.11-1.88.31-.61.21-1.16.54-1.65.99-.49.46-.88,1.04-1.17,1.76-.28.72-.43,1.57-.43,2.56,0,1.71.51,3.02,1.54,3.95,1.02.93,2.37,1.81,4.04,2.64.98.49,1.99,1.06,3.01,1.71,1.02.65,1.95,1.42,2.78,2.33.83.91,1.52,1.99,2.05,3.24.53,1.25.79,2.73.79,4.43,0,1.97-.31,3.71-.94,5.23-.62,1.52-1.46,2.79-2.5,3.84s-2.26,1.83-3.67,2.36c-1.4.53-2.88.8-4.43.8-2.24,0-4.3-.44-6.2-1.31-1.9-.87-3.41-1.97-4.55-3.3l3.69-5c.87,1.06,1.92,1.89,3.15,2.5,1.23.61,2.49.91,3.78.91,1.44,0,2.63-.49,3.58-1.48.95-.99,1.42-2.37,1.42-4.15s-.57-3.13-1.71-4.15c-1.14-1.02-2.58-1.97-4.32-2.84-1.1-.53-2.13-1.12-3.1-1.76-.97-.64-1.82-1.41-2.56-2.3-.74-.89-1.33-1.93-1.76-3.13-.44-1.19-.65-2.62-.65-4.29,0-2.08.33-3.87.99-5.37.66-1.5,1.53-2.74,2.61-3.72,1.08-.98,2.3-1.71,3.67-2.19,1.36-.47,2.75-.71,4.15-.71,2.05,0,3.87.33,5.48.99,1.61.66,2.96,1.64,4.06,2.93l-3.75,4.89Z"/>
    <path d="M638.32,508.34l-1.99-8.53h-10.57l-2.05,8.53h-6.82l10-40.24h8.7l9.83,40.24h-7.1ZM631.21,474.53h-.23l-4.38,19.95h8.87l-4.26-19.95Z"/>
    <path d="M656.97,504.65c0,1.17-.37,2.16-1.11,2.96-.74.8-1.68,1.19-2.81,1.19s-2.07-.4-2.78-1.19c-.72-.79-1.08-1.78-1.08-2.96s.36-2.12,1.08-2.96c.72-.83,1.65-1.25,2.78-1.25s2.08.42,2.81,1.25c.74.83,1.11,1.82,1.11,2.96Z"/>
    <path d="M678.1,506.01c-1.69,2.24-4.33,3.35-7.93,3.35-2.61,0-4.77-.71-6.48-2.13s-2.84-3.33-3.41-5.71l5.68-2.44c.23.99.67,1.89,1.34,2.7.66.82,1.54,1.22,2.64,1.22,1.55,0,2.59-.62,3.13-1.88.53-1.25.8-2.96.8-5.12v-27.91h6.76v28.53c0,4.02-.84,7.14-2.53,9.38Z"/>
    <path d="M709.88,479.98c0,2.05-.31,3.84-.93,5.37-.62,1.54-1.44,2.81-2.46,3.84-1.02,1.02-2.19,1.78-3.51,2.27-1.32.49-2.68.74-4.08.74h-4.76v16.14h-6.71v-40.24h11.11c1.29,0,2.61.19,3.97.57,1.36.38,2.58,1.03,3.66,1.96,1.08.93,1.97,2.15,2.67,3.67.7,1.52,1.05,3.41,1.05,5.68ZM703.46,480.07c0-2.15-.51-3.71-1.54-4.7-1.02-.98-2.33-1.47-3.92-1.47h-3.87v12.73h3.87c1.59,0,2.9-.56,3.92-1.67,1.02-1.11,1.54-2.74,1.54-4.9Z"/>
  </g>
  <g>
    <path class="st3" d="M510.46,389.96c-8.92,0-17.85-3.4-24.65-10.21-30.49-30.49-47.28-71.03-47.28-114.15s16.79-83.66,47.28-114.15,71.03-47.28,114.15-47.28,83.66,16.79,114.15,47.28c13.61,13.62,13.61,35.69,0,49.31-13.62,13.62-35.69,13.62-49.31,0-35.75-35.76-93.93-35.76-129.7,0-17.32,17.32-26.86,40.35-26.86,64.85s9.54,47.53,26.86,64.85c13.62,13.62,13.62,35.69,0,49.31-6.81,6.81-15.73,10.21-24.65,10.21Z"/>
    <path class="st4" d="M600.04,427.1c-43.12,0-83.66-16.79-114.15-47.28-13.62-13.62-13.62-35.69,0-49.31,13.62-13.61,35.69-13.62,49.31,0,17.32,17.32,40.35,26.86,64.85,26.86s47.53-9.54,64.85-26.86c17.32-17.32,26.86-40.35,26.86-64.85s-9.54-47.53-26.86-64.85c-13.62-13.61-13.62-35.69,0-49.31,13.62-13.62,35.69-13.62,49.31,0,30.49,30.49,47.28,71.03,47.28,114.15s-16.79,83.66-47.28,114.15c-30.49,30.49-71.03,47.28-114.15,47.28Z"/>
    <circle class="st1" cx="689.47" cy="176.1" r="34.86"/>
    <circle class="st2" cx="510.46" cy="355.1" r="34.86"/>
  </g>
</svg>